<svg id="Layer_1" data-name="Layer 1" xmlns="http://www.w3.org/2000/svg" viewBox="0 0 325.81 365"><defs><style>.cls-1{fill:#fff;}</style></defs><title>app_icon_light</title><polygon class="cls-1" points="26.44 365 306.93 365 301.68 356.54 296.45 348.09 291.21 339.63 285.98 331.18 51.66 331.18 45.34 339.61 39.04 348.08 32.73 356.51 26.42 364.98 26.44 365"/><polygon class="cls-1" points="50.32 160.8 50.35 163.4 50.43 166 50.57 168.6 50.75 171.2 50.99 173.78 51.28 176.35 51.63 178.92 52.03 181.49 52.48 184.02 52.98 186.55 53.52 189.06 54.13 191.57 54.46 192.8 54.79 194.04 55.5 196.5 56.26 198.92 57.06 201.34 57.92 203.72 58.81 206.08 59.76 208.41 60.76 210.71 61.79 213 62.89 215.24 64.01 217.44 65.19 219.61 66.41 221.75 67.69 223.85 69 225.92 70.36 227.93 71.06 228.91 71.78 229.9 72.48 230.86 73.21 231.83 74.71 233.72 76.25 235.57 72.54 243.27 68.84 250.97 65.15 258.67 61.45 266.38 60.42 265.39 59.36 264.31 57.21 261.96 55.11 259.56 54.09 258.43 53.12 257.37 45.71 263.05 38.29 268.75 31.04 258.84 23.78 248.94 31.28 243.33 38.79 237.71 38.05 236.58 37.34 235.43 36.66 234.24 36 233.05 34.76 230.6 33.57 228.13 32.42 225.62 31.32 223.1 30.21 220.59 29.1 218.14 20.24 221.08 11.4 224.03 7.71 212.35 4.03 200.7 12.87 197.75 21.7 194.82 21.37 193.5 21.06 192.19 20.52 189.53 20.03 186.87 19.63 184.19 19.27 181.47 18.96 178.76 18.68 176.02 18.43 173.28 9.21 173.07 0 172.89 0.16 160.85 0.32 148.83 9.38 148.89 18.45 148.97 18.57 147.59 18.73 146.22 19.05 143.49 19.43 140.77 19.87 138.07 20.36 135.38 20.91 132.71 21.5 130.07 22.16 127.44 13.56 124.38 5.02 121.39 9 109.98 12.99 98.57 21.66 101.58 30.34 104.58 31.48 102.16 32.69 99.75 33.98 97.4 35.26 95.05 36.58 92.72 37.96 90.41 39.38 88.13 40.84 85.88 33.2 80.31 25.57 74.74 32.78 65.25 39.99 55.77 47.61 61.01 55.22 66.26 58.86 62.47 60.71 60.58 62.61 58.72 63.56 57.79 64.52 56.89 65.49 55.99 66.47 55.1 67.47 54.23 68.46 53.39 69.49 52.54 70.51 51.71 65.05 44.22 59.61 36.74 69.55 29.78 79.53 22.84 85.14 30.11 90.74 37.4 95.18 34.96 97.42 33.77 99.69 32.61 101.98 31.47 103.14 30.93 104.3 30.39 106.64 29.36 107.83 28.87 109 28.41 106.14 19.69 103.26 10.99 115.03 7.39 126.79 3.82 129.84 12.27 132.9 20.73 134.12 20.49 135.33 20.26 136.59 20.05 137.85 19.86 140.41 19.52 141.7 19.36 143 19.24 148.23 18.75 153.35 18.36 153.12 9.16 152.9 0 165.09 0.16 177.31 0.32 177.31 18.59 179.81 18.82 182.32 19.14 183.56 19.32 184.8 19.5 187.28 19.94 189.73 20.4 192.17 20.89 197.01 21.91 200.13 13.3 203.27 4.71 214.83 8.47 226.37 12.23 223.41 21.04 220.47 29.84 221.65 30.32 222.83 30.82 224.01 31.35 224.59 31.62 225.17 31.9 226.33 32.48 227.48 33.08 229.77 34.32 232.02 35.59 234.26 36.88 236.48 38.15 238.71 39.4 244.24 31.77 249.78 24.16 259.6 31.28 269.43 38.43 264.02 46.06 258.6 53.7 260.59 55.34 261.55 56.19 262.49 57.06 264.28 58.81 266.03 60.59 267.74 62.43 269.43 64.28 272.91 68.03 280.45 62.51 287.98 57.01 295.12 66.84 302.25 76.67 294.73 82.09 287.22 87.53 287.94 88.66 288.63 89.78 289.29 90.89 289.91 92.01 291.09 94.24 292.21 96.48 293.26 98.76 294.3 101.06 296.47 105.83 305.32 102.97 314.21 100.08 317.96 111.64 321.72 123.18 313.04 126.01 304.36 128.83 304.99 131.41 305.55 133.92 306.05 136.39 306.48 138.88 306.69 140.11 306.87 141.35 307.05 142.63 307.2 143.9 307.49 146.51 307.76 149.21 316.78 149.18 325.81 149.16 325.81 173.44 308.05 173.44 307.55 178.77 307.27 181.3 306.95 183.81 306.59 186.29 306.38 187.53 306.14 188.79 305.63 191.33 305.32 192.6 304.99 193.91 313.88 196.84 322.77 199.77 319.15 211.33 315.54 222.87 306.74 220.03 297.92 217.2 295.74 222.01 294.67 224.37 293.58 226.72 292.46 229.06 291.3 231.38 290.03 233.72 289.36 234.89 288.65 236.07 296.19 241.48 303.75 246.91 296.76 256.93 289.8 266.97 282.43 261.46 275.07 255.95 274.09 257 273.11 258.07 271.12 260.29 269.1 262.48 268.06 263.51 267.03 264.5 263.15 257.02 259.26 249.56 255.38 242.1 251.49 234.63 253.03 232.61 254.5 230.58 255.93 228.55 257.33 226.51 258.65 224.44 259.93 222.37 261.16 220.27 262.34 218.17 263.49 216.05 264.58 213.92 265.62 211.78 266.63 209.61 267.57 207.43 268.45 205.23 268.89 204.13 269.29 203 269.7 201.89 270.09 200.77 270.84 198.52 271.55 196.23 272.2 193.93 272.81 191.59 273.36 189.24 273.88 186.87 274.33 184.47 274.75 182.05 275.11 179.6 275.44 177.1 275.71 174.59 275.92 172.05 276.09 169.49 276.22 166.9 276.3 164.27 276.31 161.63 276.27 158.74 276.16 155.88 275.97 153.03 275.7 150.21 275.37 147.42 274.97 144.62 274.49 141.85 273.96 139.13 273.35 136.41 272.67 133.71 271.94 131.04 271.13 128.4 270.27 125.79 269.34 123.21 268.36 120.66 267.31 118.15 266.2 115.65 265.05 113.19 263.81 110.76 262.56 108.36 261.22 106.01 259.85 103.69 258.38 101.41 256.9 99.15 255.35 96.94 253.76 94.78 252.11 92.65 250.41 90.55 248.67 88.49 246.87 86.48 245.03 84.52 243.15 82.59 241.22 80.73 239.25 78.89 237.25 77.11 235.19 75.37 233.11 73.69 230.98 72.05 228.8 70.47 226.61 68.93 224.37 67.45 222.08 66.01 219.78 64.64 217.45 63.32 215.12 62.1 212.73 60.9 210.28 59.75 207.82 58.66 205.32 57.62 202.8 56.65 200.26 55.73 197.69 54.88 195.09 54.1 192.48 53.36 189.84 52.7 187.17 52.13 184.49 51.59 181.8 51.15 179.08 50.76 176.34 50.43 173.6 50.17 170.83 50 168.05 49.89 165.26 49.84 162.43 49.89 159.59 49.99 156.79 50.18 153.98 50.44 151.19 50.76 148.41 51.13 145.64 51.59 142.9 52.12 140.18 52.72 137.47 53.36 134.79 54.09 132.12 54.86 129.47 55.7 126.85 56.6 124.27 57.56 121.7 58.57 119.16 59.66 116.62 60.79 114.15 61.99 111.69 63.23 109.28 64.57 106.89 65.93 104.54 67.33 102.23 68.8 99.94 70.32 97.67 71.88 95.47 73.5 93.29 75.16 91.16 76.89 89.08 78.66 87.02 80.44 85.01 82.31 83.05 84.2 81.14 86.15 79.29 88.11 77.48 90.14 75.71 92.22 73.98 94.33 72.31 96.48 70.68 98.67 69.11 100.91 67.61 103.17 66.15 105.48 64.75 107.8 63.4 110.18 62.11 112.58 60.88 115.03 59.72 117.5 58.63 120.01 57.58 122.54 56.6 125.11 55.69 127.71 54.86 130.32 54.07 132.97 53.37 135.65 52.73 138.35 52.15 141.07 51.66 143.81 51.24 146.59 50.9 149.39 50.63 152.22 50.42 155.05 50.31 157.9 50.26 160.79 50.32 160.8"/><polygon class="cls-1" points="44.37 315.94 48.04 317.63 51.29 310.4 54.55 303.19 57.81 295.97 61.09 288.76 64.35 281.55 67.62 274.34 70.87 267.13 74.15 259.92 77.39 252.69 80.67 245.48 83.92 238.27 87.19 231.06 90.45 223.84 93.71 216.63 96.99 209.42 100.25 202.21 96.59 200.52 93.31 207.73 90.05 214.94 86.79 222.16 83.53 229.37 80.27 236.58 77.02 243.79 73.75 251 70.5 258.23 67.24 265.44 63.99 272.65 60.72 279.87 57.47 287.08 54.21 294.29 50.96 301.5 47.7 308.71 44.44 315.94 44.37 315.94"/><path class="cls-1" d="M317.22,267.42,314,269l3.56,7.25,3.57,7.27,3.56,7.26,3.59,7.26,3.56,7.26,3.57,7.26,3.56,7.26,3.59,7.26,3.56,7.25,3.58,7.27,3.57,7.25,3.58,7.27,3.56,7.25,3.59,7.26,3.56,7.26,3.57,7.26,3.28-1.62-3.57-7.27L367.23,369l-3.58-7.26-3.56-7.25-3.57-7.28L353,340l-3.57-7.28-3.57-7.25-3.57-7.28-3.56-7.25-3.57-7.28-3.56-7.25L328,289.13l-3.56-7.25-3.56-7.27-3.56-7.27Z" transform="translate(-87.09 -67.5)"/><polygon class="cls-1" points="105.97 302.62 109.65 285.66 117.77 248.1 122.15 227.85 125.98 209.92 128.75 196.79 129.54 192.86 129.88 191.04 133.69 191.71 133.35 193.55 132.54 197.56 129.77 210.67 125.94 228.6 121.55 248.88 113.44 286.45 109.75 303.41 105.97 302.6 105.97 302.62"/><path class="cls-1" d="M352.85,249.47l.48-4-.23.23-.27.25-.62.47-.18.1-.18.08-.24.06-.23.05-.26,0h-.28l-.61,0-.28-.05-.25,0-.46-.12-.4-.16-.37-.2-.29-.25-.24-.27-.11-.15-.08-.16-.14-.36-.18-.74-.13-.73-.07-.74V242L347,242l-.29-.06-.45,0-.23,0-.22.05-.43.17-.41.26-.21.18-.17.21-.17.27-.13.31-.12.34-.11.39-.08.44-.08.47v.57l0,.16.25.8-2.21-.25,0-.91,0-.64.06-.62.12-.78.16-.69.2-.61.26-.51.29-.44.16-.19.17-.16.17-.15.2-.12.1-.06.1,0,.21-.07.86-.25.84-.16.86-.06h.81l.39-1.18,2.11.27-.27.45-.24.5-.14.28-.08.32-.09.33-.06.34,0,.56v.52l.07.5.06.23.09.24.09.22.13.19.14.17.16.14.19.12.2.09.22.06.25.05.3,0,.29,0,.28,0,.25-.07.24-.1.21-.12.21-.18.2-.17.35-.43.32-.41.28-.44.26-.44.45-3.78,1.89.23-1.39,11.26-1.87-.23Zm-198-7.14-1.27.11.1.91v.14l0,.12.08.25.1.22.06.1.09.09.17.16.2.11.27.05H155l.32-.05.27-.08.23-.13.18-.14.12-.19.1-.22.05-.25,0-.28,0-.36-.11-.28-.14-.17-.07-.06-.11,0-.4,0h-.21l-.22,0Zm-7.94-17.27-.06,2,11.47.41-.08,2.22-11.47-.4-.2,5.54,11.42-1,.2,2.22-5.09.44.31,3.6L155,240l.63.07.3.06.27.07.49.21.22.12.19.16.2.17.15.2.15.23.12.28.1.3.1.34.06.38,0,.43v.67l0,.32-.06.3-.11.29-.11.28-.16.28-.18.24-.19.23-.25.2-.24.18-.28.16-.32.12-.33.11-.35.06-.39.06h-.4l-.38,0-.34-.06-.29-.09-.27-.12-.23-.16L153,246l-.09-.11-.16-.23-.27-.52-.22-.52-.18-.51-.16-.52-.09-1.1-3.41.3-.2.05-.21.05-.39.17-.07.06-.08.08-.1.22,0,.14V244l.05.28.06.26.09.21.14.15.14.1.17.1.21,0h.24l.26,0,.21-.06.16-.09.12-.09.24-.33,1.21,1.54-.5.49-.37.21-.4.14-.45.11-.49.09h-.59l-.28,0-.27-.08-.25-.11-.24-.12-.22-.18-.22-.21-.2-.22-.17-.26-.16-.27-.12-.32-.2-.67-.06-.38-.05-.41,0-.41v-.38l0-.35.06-.32.08-.28.13-.26.13-.22.16-.17.38-.31.38-.27.39-.22.39-.17,4.2-.38-.32-3.6-4.47.39.15,1.62-.46,0,0,.84-1.89-.06.16-4.47-.17-2.07.26,0,.28-8,1.89.06Zm1.58-12.49-.56,4,.49-.47.32-.25.33-.24.19-.1.2-.08.45-.11.55,0,.63.06.52.1.47.12.4.17.37.21.29.23.13.15.11.13.12.16.08.14.14.35.17.73.07.37.06.36.06.72V220l.21.06.31.07H155l.24,0,.22-.05.42-.18.22-.11.22-.13.2-.18.19-.22.17-.26.14-.32.14-.34.11-.4.17-.91,0-.39v-.2l0-.15-.23-.8,2.23.3v.9l0,.63-.09.61-.06.4-.06.38-.17.69-.22.59-.26.52-.29.44-.33.34-.37.27-.21.1-.21.08-.42.11-.44.11-.84.13-.83,0h-.82l-.41,1.16-2.11-.28.28-.45.27-.53.12-.27.11-.3.07-.32.07-.36,0-.55v-.79l0-.24-.13-.49-.08-.22-.12-.21-.12-.16-.16-.15-.18-.13-.19-.09-.22-.06-.25-.06-.31,0h-.28l-.28,0-.26.06-.24.09-.22.11L149,218l-.18.18-.66.82-.29.43-.27.43-.54,3.78-1.87-.25,1.58-11.25,1.88.27Zm3.79-14.75-.52,2,11.08,3-.58,2.16-6.6-1.77-.35.52-.36.62-.2.36-.17.41-.16.41-.12.45-.15.7,0,.62v.29l0,.28.06.26.09.25.11.23.14.21.14.2.18.17.2.14.22.12.23.11.26.08.43.1.4,0H157l.35,0,.29-.1.28-.15.26-.21.22-.24.39-.55.34-.54.31-.56.28-.58,1.62,1.43-.42.76-.49.74-.55.71-.62.71-.34.3-.39.25-.23.11-.22.08-.23.06-.23.06L157,212l-.57,0-.61-.07-.66-.16-.43-.14-.42-.17-.4-.2-.34-.24-.33-.28-.29-.3-.27-.34-.26-.38-.19-.41-.13-.44-.11-.44L152,208l0-.48,0-.53.09-.53.12-.57.13-.43.13-.41.38-.86.8-1.59-2.53-.67-2.39,8.84-1.81-.49,1.73-6.49,1.74-6.49,1.81.49Zm3.07-7-.75,1.85,10.64,4.31L164.4,199l-10.64-4.29-.72,1.75-1.73-.72.68-1.68-.12-.12-.18-.1-.25,0-.3,0-.37,0-.43.07-1,.25-.55.16-.49.2-.44.2-.36.21-.31.22-.27.26-.18.25-.13.27-.1.33v.3l0,.16.05.14.06.14.1.12.22.26.27.22.3.19.34.17.33.11.28.06.27,0,.22,0,.4-.11.38-.14-.78,1.95-.32.09-.29.08-.61,0-.29,0-.29,0-.28-.06-.3-.11-.3-.14-.29-.17-.28-.2-.23-.22-.24-.23-.18-.27-.17-.28-.14-.31-.11-.32-.1-.33,0-.33,0-.34,0-.34.06-.34.1-.35.13-.37.21-.43.22-.37.24-.34.31-.32.34-.29.36-.25.39-.22.43-.18.46-.16.45-.13.47-.12.48-.11.49-.07.49-.07.51,0,.52,0,1.78.05.8-2,1.76.7ZM163,176.15l-1,1.8,10,5.57-1.08,1.94-3.11-1.71.05.38,0,.41V185l0,.47-.08.52-.19.58-.26.64-.36.73-.42.71-.44.61-.46.52-.47.43-.48.35-.52.23-.52.16-.53.05h-.53l-.54,0-.51-.06-.49-.11-.49-.13-.48-.17-.46-.18-.46-.23L159,190l-.17-.12.15-.14.14-.15.33-.39.29-.43.22-.38.24-.46.18-.45.11-.4.06-.38v-.17l0-.18-.05-.17-.1-.14-.11-.15-.15-.15-.38-.24-.26-.13-.26-.07-.27,0-.28,0-.27.05-.26.1-.24.14-.22.2-2,3.55-1.66-.9,3.62-6.51,3.62-6.52,1.64.92Zm2.9,6.51-5-2.76-2,3.62.22-.15.28-.1.32-.08.34,0h.38l.33,0,.3.07.28.12.33.2.27.21.23.22.19.25.16.24.09.26.06.3v.61l0,.3-.12.63-.11.29-.11.31-.31.61-.33.56-.11.14-.08.06.53.07.52.05h.5l.49-.05.25,0,.23-.11.23-.17.24-.19.25-.28.24-.32.24-.38.25-.44.25-.54.19-.54.08-.55,0-.53-.07-1-.11-.92Zm13.66-19.26L176,160.11l-3.52,3.76,3.15,2.94,3.26-.75.61-2.66Zm4.8-11.08-1.51,1.36,7.68,8.52-1.66,1.49-7.68-8.52-3.32,3-.3.32,8.4,7.83-1.52,1.63-3.48-3.23-1.3,7.81-2.15-.14,1.09-4.61-3.91,1-3.6-3.36-1,1-1.37-1.28,3.85-4.14-.33-.38,4.25-3.82,1.05-1.11,5.5-4.77,1.27,1.4Zm-2.93.08-.63.51-1-.35-1.14-.36L178,152l-.61-.12-.58-.08-.61-.06-.59,0h-.53l-.47,0-.41.06-.85.2-.46.14-.52.16,1-2.11.33-.06.64-.06,1,0,.56,0,.64.09.64.15.66.19.66.26.33.14.32.16,1.23.68,1.09.65Zm-2.24,1.8-.69.57h-1.1l-1.27.06-.69.1L175,155l-.35.1-.73.24-.75.33-1.93.94-.49.32-.66.52-.35-2.14.44-.27.89-.4.58-.22.65-.22.74-.18.78-.17.82-.12.76-.07h.73l.36,0,.34.05.64.11.61.12.56.15.52.13Zm18.8-3.07-4.07-5.81-2.43,1.7,1.78,2.55-.76.42-.41.22-.36.25-.44.33-.41.33-.34.33-.3.33-.13.18-.09.16-.06.16-.05.15v.14l0,.14,0,.15.07.15.18.2.17.15.17.1.17,0,.35,0,.33,0,.58-.74.36-.4.39-.31,1.2-.84,1.21,1.17-.61.28-.6.35-.45.35-.39.37-.31.34-.26.36-.09.19-.06.19,0,.17v.2l.08.39.09.18.12.2.11.16.12.12.14.11.14.08.14.06.17,0h.32l.36-.06.38-.12.37-.18.38-.23.28-.22.27-.24.51-.55.49-.65.43-.75.36-.73.23-.61.06-.26.05-.24v-.21l0-.17Zm6.32-11.7-1.79,1,5.39,10.13-2,1-5.39-10.13-4.45,2.39-.34.24,6.58,9.41-1.83,1.29L199.25,153l-.2.48-.22.48-.27.51-.3.55-.15.28-.21.29-.45.54-.57.52-.3.26-.33.26-.7.42-.72.33-.77.24-.39.09-.39.06h-.39l-.36,0-.35-.06-.3-.11-.28-.14-.26-.19-.24-.22-.11-.13-.11-.15-.23-.39-.12-.39-.05-.39,0-.38.2-.67.11-.24.11-.18-.64.14-.68.09h-.18l-.17,0-.15,0-.16-.08-.16-.09-.13-.13-.26-.31-.18-.3-.15-.29-.08-.29-.05-.28v-.31l.06-.28.1-.28.14-.28.34-.52.22-.25.22-.25.49-.47.55-.42.58-.4.2-.13-.84-1.21-4.61,3.22L184.32,150l6.62-4.65-.29-.55,4.53-2.39,1.23-.87.11.13,7-3.71.9,1.68Zm-3-.61-1.39.7-1.71-1-.61-.3-.33-.12-.33-.11-.67-.17-.69-.08-.68-.06h-.83l-.23,0-.39.1-.63.22-.54.24-.46-2.13.44-.18.45-.13.47-.13.49,0,.53,0,.28,0,.31,0,.67.15.72.21.74.24.72.28.68.33.68.38,1.24.75,1.13.73Zm14.94-7.92L213.82,132l-1-.31-1-.28-2.14-.52-.55-.11-.54-.06-.49,0-.49,0-.47,0-.44.09-.44.14-.4.16-.46.28-.19.14-.17.17-.14.17-.12.2-.09.2-.06.22,0,.22v.7l0,.24.07.26.2.48.24.44.26.37.14.16.13.12.28.19.58.25.28.09.28.08,2.14-1,.81,1.71-1.82.86,4.85,10.41-2,.93-4.85-10.39-1.73.8-.8-1.71,1.4-.64-.28-.11-.29-.13-.62-.34-.16-.13-.16-.12-.29-.33-.28-.42-.26-.49-.16-.37-.08-.35-.06-.35,0-.37,0-.36.06-.36.11-.37.16-.37.18-.34.21-.33.24-.3.27-.28.28-.26.31-.23.36-.22L205,130l.5-.21.51-.18.54-.13.55-.11.58-.06.58,0h.6l.62,0,.62.06.62.08,1.25.2,1.23.28,1.2.35,2,.73Zm9.82.31-1.93.64,3.55,10.93-2.16.71L222,132.59l-4.11,1.33.76.52.4.33.41.34.21.21.21.24.17.25.19.31.32.66.16.37.14.39.15.53.12.52.15,1v.9l-.05.44-.1.42-.12.39-.08.19-.1.17-.23.33-.3.32-.34.26-.39.25-.46.22-.5.19-.35.1-.34.06-.36.05h-.35l-.33,0-.34-.08-.33-.1-.34-.12-.31-.16-.28-.19-.27-.22-.23-.23-.21-.26-.18-.29-.16-.32-.12-.33-.11-.44,0-.23v-1.2l2-.65,0,.89v.26l0,.23,0,.23.06.22.15.36.17.32.22.27.26.23.28.16.15.06.16,0h.36l.37-.09.22-.1.21-.11.16-.15.14-.16.11-.17.08-.21.05-.24v-.79l-.1-.62-.14-.64-.19-.7-.31-.83-.32-.7-.38-.55-.18-.24-.1-.09-.11-.1-.39-.34-.39-.28-.77-.45-4.26,1.4-.6-1.8,7.37-2.4,7.37-2.37.58,1.79Zm20.75-2.57-5.85.42v-.15l-3.08.49.36,2.42.35-.29.52-.35.3-.17.34-.16.35-.11.38-.08.45,0,.44,0,.4,0,.4.06.39.11.38.14.38.17.34.22.33.25.29.27.24.3.23.33.19.34.16.36.11.42.08.41.05.47v.45l0,.42-.06.43-.11.4-.16.38-.2.37-.23.37-.27.33-.28.3-.31.25-.32.23-.36.18-.37.15-.39.12-.4.08-.38.05h-.41l-.31-1.92.14,0,.12,0h.12l.41-.11.38-.17.33-.23.27-.29.12-.17.1-.21.06-.19.06-.22,0-.24,0-.24,0-.55-.11-.44-.16-.37-.22-.33-.15-.15-.14-.11-.17-.11-.17-.07-.43-.11-.5,0-.28,0-.3,0-.34.07-.31.12-.25.16-.21.21-.2.21-.15.24-.3.43,1,6.57-2.19.34-.43-2.64-1.17.63-.33.14-.3.11-.57.14-.44.06h-.43l-.42,0-.39-.06-.39-.09-.38-.14-.37-.17-.36-.19-.33-.25-.28-.26-.27-.32-.22-.33-.2-.36-.16-.39-.12-.42-.08-.44-.05-.42v-.4l0-.39.07-.38.14-.34.17-.33.22-.33.27-.3.28-.27.31-.26.33-.22.35-.19.38-.16.39-.13.4-.11.43-.08.86-.06.9,1.85-.47-.05h-.32l-.31,0-.5.11-.44.16-.4.22-.34.27-.14.15-.13.17-.1.19-.07.2,0,.22v.47l0,.26.05.22.06.2.1.19.1.17.12.16.13.16.16.12.2.12.19.11.18.09.42.12.4.05.44,0,.36-.07.33-.12.31-.16.26-.21.46-.44.37-.43-1-6.42L228.12,131l-.29-1.87,8.57-1.36,8.58-1.34.09.53,1.53-.1.12,1.88Zm6.2,0-2,0,.2,11.47-2.21.05-.2-11.48-1.88,0,0-1.87,1.83,0,0-.07,0-.08v-.21l-.06-.24-.08-.3-.08-.15-.08-.18-.22-.36-.28-.4-.34-.45-.38-.44-.37-.38-.34-.31-.33-.26-.32-.21-.33-.13-.31-.07-.3,0-.33,0-.29.11-.14.09-.11.1L244,123l-.1.15-.13.3-.1.33-.06.35,0,.38,0,.34.06.31.08.23.11.2.26.33.29.28-2.09,0-.21-.23-.18-.24-.15-.27-.12-.28-.11-.28-.06-.28,0-.29v-.8l.05-.33.06-.32.11-.32.13-.3L242,122l.2-.27.22-.25.24-.23.28-.19.29-.17.29-.14.33-.13.34-.08.37,0,.38,0h.46l.44.06.42.11.39.14.39.19.38.24.36.26.36.33.63.72.57.77.27.42.26.44.47.92.65,1.64,2.14,0,0,1.89Zm28,4.19-2-.41-2.37,11.23-2.18-.46,1.13-5.32-3.25-.68.39-1.84L276,136l.87-4.06-5.58-1.17.43.54.19.33.2.35.08.18.06.22.05.22,0,.24,0,.54-.09.61-.09.39-.06.19-.09.17-.15.36-.21.29-.22.28-.27.25-.28.22-.33.19-.34.15-.33.14-.34.11-.34.06-.34,0h-.34l-.34,0-.35-.06-.09.26,0,.18-.05.45.05.44.12.46.24.46.15.22.21.21.26.18.29.17.33.16.37.15.43.12.48.11.23.05.24,0h.49l.44,0,.34-.07-.82,2.14-1.09-.17-.88-.16-.77-.18-.68-.23-.6-.25-.5-.29-.22-.16-.18-.17-.18-.17-.13-.18-.14-.18-.1-.18-.14-.43-.16-.87-.07-.86v-.83l.08-.81-1.13-.5.4-1.93.93.59.56.27.31.08.34.1.52.07h.5l.47-.06.44-.12.21-.1.19-.12.16-.12.14-.17.13-.17.11-.22.15-.48.05-.29v-.56l0-.26-.06-.23-.1-.23-.12-.2-.14-.2-.35-.38-.35-.33-.34-.32-.36-.28-3.41-.72.39-1.85,8.11,1.73,8.12,1.72-.39,1.85Zm1.71-5.27-.12.31-.17.25-.19.21-.25.19-.28.11-.28.06h-.29l-.29-.06-.29-.12-.26-.17-.21-.22-.18-.28-.12-.29-.05-.29v-.32l.06-.29.14-.29.17-.26.24-.18.27-.16.29-.11.29,0,.32,0,.29.07.29.13.25.17.19.21.16.25.11.3.05.28v.24l0,.16-.05.16Zm10.47,10.18L289,136.08l.17.31.16.31.15.34.14.39.05.21,0,.21,0,.24,0,.26-.11.53-.2.59-.16.37-.18.33-.22.32-.23.27-.28.24-.28.21-.33.17-.34.15-.35.1-.37.08-.35,0H286l-.34,0-.37,0-.33-.08-.34-.11-.22.42-.06.22,0,.22,0,.21v.47l.05.23.06.25.1.24.12.24.17.24.21.25.27.2.3.22.37.18.82.38.48.15.47.07.43,0h.37l-.75,2-.86-.17-.7-.18-.75-.26-.38-.16-.34-.15-.63-.33-.55-.34-.44-.37-.36-.38-.14-.2-.12-.21-.09-.21-.06-.22,0-.2,0-.22v-1.32l.05-.41.13-.83.2-.78-1-.67.71-1.85.38.37.44.35.52.35.3.15.33.13.51.17.49.09h.46l.48-.07.21-.06.2-.09.2-.12.17-.12.14-.17.14-.19.12-.19.08-.23.1-.28.09-.28,0-.27v-.26l0-.24-.05-.23-.09-.24-.13-.22-.27-.42-.29-.41-.61-.71L283,133.82l.67-1.78L294,136l-.67,1.77Zm-.62,6.22-3.5-1.35.69-1.75,3.52,1.35-.69,1.75Zm21.51,6.45-1.64-1.16-6.74,9.27-1.8-1.31,6.76-9.28-4.49-3.26-5.58,10-2-1.08,1.71-3.11h-.48l-.5,0-1.1-.12-.57-.11-.57-.18-.6-.23-.61-.32-.66-.4-.57-.4-.49-.44L294,148l-.21-.22-.33-.45-.24-.46-.15-.49-.06-.24,0-.25,0-.52,0-.49,0-.5.08-.46.12-.49.16-.45.18-.47.24-.45.3-.54.19-.34.31.26.36.29.44.31.55.32.54.28.54.21.24.07.27,0,.49.06h.23l.22,0,.21-.06.19-.11.2-.12.17-.17.15-.19.14-.23.16-.3.09-.28.07-.25V141l-.05-.22-.05-.1-.08-.11-.18-.17-.27-.17-.29-.14-.28-.07-.13,0h-.12l-.09.06-.11.06-.17.18-.17.18-.29.41-1.91-1.06.36-.39.39-.38.44-.34.47-.33.27-.12.31-.07.33,0,.35,0,.38.07.39.15.42.17.45.23.33.21.32.22.27.23.21.25.11.12.1.14.16.28.13.28.09.32.05.31,0,.32v.24l0,.31-.08.31-.09.32-.28.62-.25.41-.26.37-.28.29-.15.14-.16.11-.14.1-.15.09-.33.13-.34.08-.34,0h-.35l-.37,0-.36-.06-.36-.08-.36-.11-.37-.14-.34-.16-.36-.18-.56-.31-.25-.14-.12.31-.12.35-.26,1v.3l0,.15,0,.14.13.31.09.13.14.16.28.29.37.32.44.29.54.32.61.29.33.12.32.09.71.16.37,0,.37,0h.69l.3,0,.27,0,.23,0,.19-.06.17-.09.13-.1,2.64-4.8-1.46-.82.23-.41-.62-.46,1.11-1.52,3.73,2.71L309,144l-.11.21,6.5,4.73-1.1,1.51Zm12.05,10.76-1.48-1.4-7.83,8.4-1.64-1.54,4.95-5.29L316.55,158l-.27-.24-.29-.27-.31-.21-.33-.16L315,157l-.36,0-.17,0-.16.05-.14.07-.17.1-.16.14-.16.15-.11.13-.07.13-.07.12-.07.12-.09.28,0,.28,0,.29.1.27.06.12.08.13.2.22.19.14.21.11.21.06.23,0h.23l.11,0,.11-.05.22-.12.18-.17.26-.34.08-.21.06-.19,1.63,1.52-.2.48-.13.18-.12.17-.23.24-.24.2-.26.17-.25.13-.55.17-.27.05h-.57l-.29-.05-.28-.1-.31-.11-.28-.15-.29-.19-.58-.47-.31-.32-.28-.31-.23-.31-.21-.33-.16-.31-.09-.33-.08-.32,0-.33,0-.31,0-.33.06-.32.11-.29.15-.32.18-.3.23-.3.26-.28.38-.39.37-.31.37-.26.37-.18.34-.12.33-.06h.32l.31.08.59.26.59.29.52.33.49.37,4.27,4,1.65-1.75-7.56-7.05,1.27-1.39,10.7,10-1.3,1.4ZM344.36,187l-1.05-1.71-9.83,5.93-1.15-1.93,3-1.8-.49-.29-.26-.18-.23-.25-.41-.57-.38-.6-.51.1-.55,0-.6,0-.62-.07-.31-.07-.33-.16-.33-.21-.32-.27-.33-.34-.33-.39-.32-.45-.34-.53-.37-.66-.29-.65-.11-.31-.09-.31-.11-.58,0-.28v-.55l0-.24.14-.5.22-.46.52-.88.57-.8.29-.39.31-.37.33-.34.31-.33-.4-1.24,1.63-1,.21.91.09.27.09.24.22.44.32.49.35.41.2.17.19.17.2.15.2.13.21.1.21.07.23,0h.22l.24,0,.25-.06.26-.11.26-.13.33-.22.27-.24.19-.27.15-.28.12-.31.1-.3.14-.59-2.25-3.72,1.63-1,4.92,8.19,4.92,8.19-1.61,1Zm-7.32-.54,5.13-3.08-4.31-7.18,0,.22-.06.3-.08.31-.14.38-.17.38-.25.33-.3.28-.34.25-.44.24-.4.2-.4.13-.35.06h-.36l-.32,0-.31-.11-.16-.06-.14-.09-.55-.4-.5-.43-.45-.45-.43-.49-.44.44-.41.49-.39.54-.38.57-.07.16-.06.15-.1.36v.73l.09.4.14.44.22.45.27.47.2.32.19.28.38.43.17.17.17.13.17.09.17,0,.32.07.31,0h.29l.28-.05,0-.49.06-.46.13-.44.18-.39.24-.37.28-.34.35-.31.41-.28.45-.24.45-.2.43-.12.21-.05H337l.38.06.36.11.33.17.62.44.31.25.26.25.26.28.23.28.23.31.21.32.12.22L339,184.32l-.13-.42-.22-.44-.23-.33-.27-.27-.32-.22-.16-.09-.18-.08-.34-.08h-.35l-.17,0-.17.05-.36.16-.17.11-.13.15-.24.28-.08.14-.05.16,0,.18v.17l0,.39.09.38.16.39.21.38.28.38.1.09.09.09.21.17.65.47Zm.95,15-.39-.51-.33-.49L337,200l-.18-.39-.17-.4-.21-.6-.17-.55-.12-.51-.07-.5,0-.46,0-.44,0-.41.1-.37.15-.36.16-.35.19-.32L337,194l.27-.31.31-.29.33-.28.37-.27L339,195l-.19.11-.22.16-.5.49-.12.17-.07.22,0,.28v.33l.07.37.1.44.15.49.21.53.1.27.12.23.3.52.21.28.22.26.22.21.11.07.11.05-1.75,1.11Zm1.72-1.1.31.19.33.1h.33l.33-.1.3-.12.22-.17.09-.1.07-.11.07-.22,0-.27,0-.29-.1-.34-.12-.4-.53-1.19-.45-1-.11-.34-.1-.35-.1-.65v-.63l.05-.29.09-.29.11-.28.13-.25.16-.24.18-.22.2-.2.25-.17.26-.15.29-.13.34-.13.33-.07.3,0h.28l.26,0,.25.08.21.14.18.15.37.37.32.38.14.19.15.2.27.41,1.25,3.28,1.36-.53-2.76-7.18,1.77-.68,4.37,11.39-1.77.69-.94-2.44-3,1.15-1.12-2.84-.21-.59-.24-.61-.13-.37-.16-.31-.16-.24-.15-.2-.19-.12-.2-.06h-.24l-.12,0-.13.05-.26.13-.09.07-.08.09-.06.11,0,.11,0,.11v.14l0,.27.06.27.16.54.22.48.39.82.42.83.26.57.1.28.06.29.06.56v.27l-.05.28-.09.27-.1.28-.26.51-.17.22-.19.2-.22.19-.24.17-.27.14-.28.13-.4.13-.41.08-.39,0h-.39l-.38-.06-.35-.11-.37-.16-.35-.2-.22-.16-.22-.19-.21-.18-.2-.2,1.71-1.11ZM354,221l-.39-2-11.26,2.19-.44-2.24,11.27-2.19-.82-4.25-.3.35-.31.34-.77.72-.24.17-.25.16-.29.16-.29.14-.33.12-.38.11-.38.11-.42.07-.54.1-.52.06h-1l-.46,0-.44-.08-.41-.09-.41-.14-.38-.18-.33-.22-.32-.28-.13-.15-.14-.17-.21-.36-.11-.21-.1-.22-.16-.49-.13-.52-.05-.37,0-.36,0-.34,0-.35.07-.35.11-.32.14-.32.16-.32.2-.3.22-.27.23-.24.27-.21.28-.17.31-.16.33-.11.34-.07.45-.06h.48l.94.11.4,2.08-.89-.16-.48,0-.45,0-.38.09-.17.08-.16.07-.29.17-.27.22-.19.27-.13.29,0,.17v.17l.05.39.06.23.07.21.12.17.14.16.17.12.18.11.23.07.24.05.55,0h.61l.66-.07.7-.1.87-.21.74-.26.31-.14.29-.15.24-.18.22-.17.38-.37.34-.34.28-.35.25-.34-.85-4.41,1.85-.37,1.48,7.59,1.47,7.6-1.85.36Zm.38,15.54-.05-2.06-11.47.21,0-2.24,3.78-.06-.23-.33-.22-.34-.17-.32-.13-.33-.06-.19-.05-.17-.06-.37-.06-.39,0-.42,0-.42,0-.41.08-.38.11-.39.14-.37.17-.36.2-.35.25-.35.27-.3.28-.27.3-.23.33-.2.16-.07.17-.07.37-.11.38-.08.41,0,4.92-.1,0-1.62,1.9,0,.11,6.51.11,6.54-1.89,0Zm-5.58-4.19,5.5-.1-.09-4.91-4.61.08-.44.05-.2,0-.21.06-.36.21-.32.26-.27.33-.18.4-.11.44,0,.48,0,.44.08.42.14.38.07.17.11.16.42.59.21.27.22.24Zm-10,2.85-.32,0-.32-.06-.29-.11-.27-.13-.23-.19-.22-.21-.17-.24-.17-.28-.14-.31-.11-.32-.11-.32-.08-.36-.05-.34-.05-.36V230.7l.07-.45.19-.94.3-1,.18-.5.22-.5.44-.93.22-.38.2-.33.41-.51.19-.19.17-.12,1.5,1-.38.47-.38.5-.39.54-.39.6-.19.32-.16.35-.14.35-.11.38-.17.8-.05.43v.83l.05.34.05.16,0,.16.12.28.09.13.08.11.19.16.22.11.27.05.22,0,.19-.09.17-.12.15-.18.11-.23.07-.26.05-.28,0-.31,0-.58-.08-.54-.06-.22-.08-.17-.06-.1-.06,0,1.75.06.1.55,0,.58v.64l-.07.74-.07.34-.07.33-.21.64-.14.28-.15.26-.17.26-.21.22-.22.17-.27.16-.29.11-.31.06-.36.05h-.37Zm-3.72-33.62-.13.3-.17.25-.21.22-.27.18-.26.12-.3.06h-.28l-.3-.06-.28-.12-.26-.17-.22-.22-.17-.26-.12-.29-.06-.3,0-.31.06-.32.14-.28.17-.25.22-.21.28-.16.3-.11.29,0h.3l.31.08.28.14.23.16.21.2.16.25.11.28.05.3,0,.29,0,.15,0,.16Z" transform="translate(-87.09 -67.5)"/><polygon class="cls-1" points="45.48 320.01 106.89 307.5 168.16 328.56 230.72 307.5 288.93 320.01 287.14 315.8 229.95 303.16 168.16 323.84 106.89 302.52 44.33 315.29 45.48 320.01"/><line class="cls-1" x1="168.42" y1="202.18" x2="133.57" y2="186.22"/><polygon class="cls-1" points="131.01 189.54 168.42 200.65 199.57 189.54 230.97 200.78 228.03 203.84 199.69 193.88 168.42 203.84 130.89 192.67 95.05 203.83 96.99 200.52 131.01 189.54"/><polygon class="cls-1" points="227.99 303.31 223.44 286.72 213.34 250.01 207.9 230.23 203.04 212.72 199.44 199.93 198.34 196.11 197.8 194.35 201.43 193.24 201.97 195 203.1 198.9 206.69 211.68 211.55 229.19 217 249 227.11 285.72 231.65 302.3 227.98 303.29 227.99 303.31"/><polygon class="cls-1" points="167.47 324.46 167.54 305.75 167.66 264.3 167.73 241.96 167.74 222.18 167.72 207.7 167.68 203.38 167.63 201.45 167.63 201.37 171.47 201.51 171.52 203.53 171.56 207.94 171.58 222.41 171.57 242.19 171.5 264.56 171.38 306.02 171.3 324.73 167.46 324.44 167.47 324.46"/><polygon class="cls-1" points="73.75 251 120.5 242.39 167.82 266.39 208.5 256.52 215.48 246.48 221.4 223.05 243.06 232.52 247.06 240.99 225.01 233.37 219.74 258.22 270.12 289.88 277.01 302.9 220.16 268.01 218.55 264.18 170.55 276.78 151.48 267.58 168.42 296.35 196.42 315.42 180.08 321.2 168.42 313.54 138.38 263.67 118.97 251.93 71.65 260.95 73.75 251"/><polygon class="cls-1" points="110.72 244.82 123.48 223.5 156.42 198.73 165.74 201.93 132.16 227.2 124.2 244.44 110.72 244.82"/><g id="g842"><path id="path835" class="cls-1" d="M227.77,276.67a155.23,155.23,0,0,1,12.58,18.57c3.2,6.08,4.52,10.19,6.9,17.5,1.4,4,2.71,5.26,5.51,5.26,3,0,4.43-2.05,5.5-5.26,2.22-6.9,3.95-12.16,6.66-17.17,5.34-9.62,12.08-18.16,18.65-26.38,1.81-2.3,13.32-15.86,18.49-26.63a64.79,64.79,0,0,0,6.33-28.18,56,56,0,0,0-6.25-26l-18.07,4.84-11,28.93-2.71,4-.57.73-.74.91-1.24,1.48L266,231l-9.78,8L231.8,253.08Z" transform="translate(-87.09 -67.5)"/><path id="path833" class="cls-1" d="M202.54,240.59c6,13.64,17.43,25.56,25.23,36.08l41.34-49a21.71,21.71,0,0,1-16.35,7.64,21.17,21.17,0,0,1-21.29-21.2,22.64,22.64,0,0,1,4.85-13.72l-28,7.47Z" transform="translate(-87.09 -67.5)"/><path id="path831" class="cls-1" d="M269.6,161a55.11,55.11,0,0,1,32.54,27.45l-33,39.36A23,23,0,0,0,274,214.05a21.42,21.42,0,0,0-21.2-21.21,22.25,22.25,0,0,0-16.44,7.57V175.59Z" transform="translate(-87.09 -67.5)"/><path id="path829" class="cls-1" d="M210.1,178.3a55.23,55.23,0,0,1,42.49-19.89A56.73,56.73,0,0,1,269.52,161l-33.2,39.45h-23.5Z" transform="translate(-87.09 -67.5)"/><path id="path827" class="cls-1" d="M202.54,240.59a63.63,63.63,0,0,1-5.42-26.3,55.29,55.29,0,0,1,13.07-35.91l26.21,22.11Z" transform="translate(-87.09 -67.5)"/></g><polygon points="275.58 221.68 275.83 221.79 276.06 221.93 276.27 222.09 276.47 222.28 276.65 222.46 276.8 222.68 276.94 222.92 277.05 223.17 277.15 223.44 277.21 223.7 277.26 223.97 277.26 224.22 277.25 224.49 277.22 224.74 277.14 225 277.04 225.27 276.92 225.51 276.78 225.75 276.62 225.94 276.45 226.15 276.25 226.32 276.03 226.48 275.79 226.61 275.54 226.72 275.27 226.81 275.01 226.87 274.49 226.91 274.22 226.9 273.95 226.87 273.69 226.78 273.43 226.68 273.16 226.55 272.94 226.4 272.73 226.25 272.53 226.07 272.34 225.87 272.19 225.65 272.04 225.42 271.91 225.16 271.81 224.89 271.75 224.63 271.73 224.36 271.7 224.1 271.71 223.83 271.76 223.57 271.82 223.3 271.93 223.04 272.04 222.77 272.18 222.56 272.34 222.34 272.52 222.15 272.7 221.96 272.92 221.81 273.15 221.67 273.39 221.53 273.66 221.45 273.92 221.36 274.45 221.31 274.72 221.33 274.97 221.37 275.23 221.44 275.5 221.54 275.58 221.68"/><path d="M365.59,271.13l.1.06-.82,2.48,5.15,1.68-.17.5-.13.4-.15.33-.13.27-.13.2-.15.17-.17.16-.44.27-.33.12-.47.17-1.45.43-3.26.91-1,3,2.9-.72,1.47-.41L367,281l.44-.17.36-.21.36-.22.37-.26.36-.31-.09.43-.06.39V281l0,.37.08.34.09.31.12.31.14.28.18.27.09.12.11.12.22.22.11.11.12.09.27.18.28.16.31.14.34.13.53.13.27.05h.27l.52,0,.53-.1.24-.09.23-.08.44-.23.38-.3.34-.36.31-.47.15-.28.16-.33.3-.77.33-.91,1.69-5.25Zm8.87,7.82-.39,1.21-.23.58-.16.27-.2.22-.2.17-.25.12-.25.08-.28,0-.28,0-.31-.08-.27-.1-.24-.13-.19-.16-.16-.17-.12-.2-.1-.22-.08-.21,0-.25,0-.33.11-.5.17-.64.27-.82.59-1.85.08.09,3.13,1Z" transform="translate(-87.09 -67.5)"/><polygon points="294.44 193.57 293.79 196.11 287 194.41 285.65 194.1 285.18 194.01 284.88 193.97 284.49 193.98 284.13 194.05 283.95 194.13 283.78 194.2 283.45 194.39 283.32 194.53 283.18 194.66 283.05 194.83 282.94 195.01 282.74 195.43 282.58 195.91 282.49 196.41 282.46 196.88 282.48 197.07 282.52 197.25 282.64 197.62 282.81 197.91 283.02 198.18 283.27 198.37 283.58 198.53 283.94 198.67 284.42 198.82 285.68 199.17 292.65 200.91 292.03 203.44 285.42 201.8 284.37 201.5 283.49 201.25 282.8 200.99 282.27 200.77 281.85 200.54 281.47 200.27 281.15 199.96 280.87 199.63 280.63 199.25 280.45 198.82 280.39 198.6 280.3 198.37 280.25 198.13 280.2 197.88 280.17 197.61 280.15 197.35 280.19 196.75 280.28 196.1 280.44 195.37 280.67 194.54 280.8 194.16 280.95 193.82 281.23 193.22 281.54 192.75 281.88 192.37 282.25 192.04 282.62 191.78 283.02 191.56 283.42 191.38 283.81 191.28 284.2 191.22 284.6 191.19 285.23 191.23 285.99 191.34 286.86 191.51 287.85 191.74 294.57 193.42 294.44 193.57"/><polygon points="284.01 178.01 284.08 178.02 284.1 177.92 284.01 178.01"/><path d="M377.5,246.51l-6.32-1-.4,2.48,4.82.77-.27,1.68-.12.83-.14.71-.1.64v.53l.1.36.1.36.13.37.17.36.2.37.26.33.29.31.34.28.39.26.45.2.5.18.56.1.38.05.35,0h.34l.34,0,.31,0,.3-.08.56-.24.5-.32.22-.18.21-.19.34-.44.27-.5.16-.44.17-.66.17-.86.18-1.08.66-4.14Zm3.69,4.42-.21,1.16-.19.68-.12.31-.16.25-.21.22-.23.2-.15.06-.14.06-.3.1-.32,0-.33,0-.28-.06-.26-.1-.22-.12-.2-.17-.18-.18-.14-.22-.11-.24-.09-.24,0-.34v-.45l.05-.57.09-.68.23-1.4,3.63.58.06-.1Z" transform="translate(-87.09 -67.5)"/><polygon points="289.57 169.76 291.76 169.91 291.37 175.53 286.21 175.17 285.87 174.69 285.54 174.1 285.25 173.45 284.98 172.69 284.87 172.28 284.78 171.89 284.65 171.09 284.6 170.28 284.62 169.48 284.67 168.97 284.76 168.5 284.86 168.02 284.98 167.58 285.13 167.16 285.31 166.74 285.51 166.35 285.73 165.99 285.99 165.62 286.25 165.31 286.56 165 286.88 164.72 287.2 164.47 287.56 164.25 287.92 164.04 288.34 163.87 288.75 163.71 289.18 163.59 289.6 163.49 290.04 163.42 290.48 163.37 290.94 163.33 291.39 163.33 291.84 163.36 292.36 163.41 292.84 163.48 293.32 163.58 293.76 163.7 294.19 163.86 294.62 164.03 295.01 164.23 295.4 164.45 295.76 164.7 296.12 164.95 296.43 165.24 296.73 165.57 296.99 165.91 297.24 166.28 297.46 166.68 297.64 167.08 297.76 167.41 297.87 167.75 298.03 168.51 298.07 168.91 298.09 169.31 298.07 170.2 298.02 170.77 297.92 171.32 297.81 171.83 297.68 172.32 297.49 172.76 297.29 173.16 297.07 173.53 296.8 173.86 296.52 174.17 296.21 174.44 295.89 174.68 295.53 174.89 295.16 175.06 294.77 175.22 294.34 175.32 293.9 175.41 293.58 172.78 294.06 172.63 294.47 172.45 294.85 172.18 295.18 171.85 295.45 171.48 295.65 171.04 295.74 170.81 295.81 170.55 295.87 170.02 295.89 169.59 295.87 169.2 295.81 168.82 295.72 168.46 295.59 168.1 295.42 167.79 295.22 167.48 294.99 167.2 294.72 166.94 294.4 166.72 294.07 166.51 293.69 166.35 293.27 166.21 292.83 166.1 292.34 166 291.83 165.95 291.27 165.93 290.76 165.93 290.26 165.97 289.81 166.05 289.38 166.17 288.98 166.3 288.81 166.4 288.64 166.5 288.31 166.72 288.15 166.85 288.03 166.97 287.76 167.24 287.55 167.52 287.38 167.84 287.22 168.18 287.11 168.54 287.02 168.92 286.97 169.32 286.97 169.72 287 170.13 287.08 170.55 287.19 170.98 287.33 171.38 287.49 171.76 287.66 172.11 287.86 172.43 289.51 172.55 289.71 169.58 289.57 169.76"/><path d="M385,220.58l-6.56-2.29L371.81,216l.1,2.77,3,1,.17,5.19-2.91,1.22.09,2.82,0,0,6.38-2.83,6.39-2.81Zm-7.3,3.41v.12h-.42v-.06l-.13-3.57,5.06,1.57Z" transform="translate(-87.09 -67.5)"/><polygon points="282.85 136.29 282.97 136.28 282.96 136.17 282.85 136.29"/><path d="M383.65,208.42l-.11-1-.77-5.47-6.43.9-6.28.89.34,2.49,5.36-.75.07.53.05.43,0,.37,0,.29v.25l-.06.21-.1.22-.12.22-.15.21-.24.26-.36.37-1.1,1-2.53,2.24.44,3.11,2.27-1.93.62-.53.54-.47.41-.4.31-.34.25-.33.22-.35.22-.4.18-.44.14.41.13.37.17.34.17.32.21.28.22.25.23.22.27.2.25.17.28.13.3.11.29.07.33,0,.33,0,.68,0,.55-.11.52-.18.45-.24.43-.3.37-.35.15-.2.12-.2.12-.21.09-.22.13-.46.08-.56v-.69Zm-2.17.73-.06.28-.13.24-.15.21-.1.11-.11.07-.23.14-.27.11-.3.06h-.28l-.27,0-.23-.05-.22-.08-.21-.12-.17-.14-.14-.19-.14-.2-.13-.3-.11-.5-.26-1.51-.26-1.91,0,0L381,205l.28,2,.15,1.25.07.64Z" transform="translate(-87.09 -67.5)"/><path d="M380,190.89l-6.92-.76-6.91-.75.71,2.68,3.13.27,1.35,5-2.56,1.83.73,2.73h0l11.17-8.36ZM373.2,196l-.92-3.43,5.07.45Z" transform="translate(-87.09 -67.5)"/><polygon points="274.58 110.41 286.58 105.55 287.57 107.99 282.85 109.91 284.76 114.62 289.49 112.7 290.48 115.15 278.46 119.99 277.49 117.55 282.75 115.43 280.84 110.7 275.59 112.8 274.6 110.37 274.58 110.41"/><polygon points="268.39 98.29 279.83 92.22 281.04 94.53 275.98 97.23 283.54 99.2 285.18 102.31 278.44 100.35 273.88 108.61 272.29 105.63 275.99 99.61 273.09 98.76 269.63 100.6 268.42 98.28 268.39 98.29"/><polygon points="256.56 81.73 260.74 78.22 263.44 69.76 265.4 72.11 263.44 77.75 269.28 76.74 271.23 79.07 262.42 80.26 258.26 83.75 256.57 81.76 256.56 81.73"/><polygon points="251.68 69.65 253.24 68.1 257.22 72.08 253.55 75.74 252.97 75.68 252.32 75.56 251.98 75.46 251.64 75.34 250.91 75.05 250.15 74.67 249.8 74.46 249.46 74.24 248.83 73.77 248.24 73.23 247.9 72.85 247.6 72.49 247.32 72.11 247.07 71.72 246.84 71.32 246.66 70.93 246.5 70.52 246.35 70.09 246.26 69.68 246.2 69.25 246.16 68.82 246.16 68.42 246.25 67.58 246.34 67.16 246.48 66.73 246.63 66.31 246.82 65.93 247.03 65.54 247.27 65.16 247.52 64.78 247.79 64.44 248.4 63.75 248.77 63.39 249.14 63.08 249.52 62.8 249.91 62.53 250.32 62.31 250.73 62.1 251.14 61.93 251.55 61.79 251.99 61.68 252.42 61.59 252.86 61.54 253.28 61.53 253.72 61.54 254.16 61.6 254.59 61.7 255.03 61.82 255.69 62.09 256.35 62.47 257.01 62.95 257.67 63.55 258.07 63.99 258.43 64.42 258.75 64.84 259.02 65.27 259.24 65.68 259.41 66.11 259.53 66.51 259.63 66.92 259.66 67.34 259.66 67.74 259.64 68.15 259.55 68.56 259.44 68.97 259.29 69.36 259.1 69.75 258.88 70.13 256.69 68.64 256.9 68.2 257.02 67.76 257.07 67.31 257.05 66.84 256.94 66.39 256.84 66.17 256.73 65.95 256.46 65.52 256.11 65.12 255.79 64.84 255.47 64.6 255.17 64.39 254.83 64.21 254.5 64.1 254.15 64 253.79 63.95 253.43 63.95 253.05 63.99 252.69 64.06 252.31 64.2 251.93 64.37 251.55 64.59 251.18 64.85 250.8 65.15 250.42 65.5 250.03 65.91 249.7 66.31 249.4 66.7 249.17 67.11 248.99 67.5 248.85 67.89 248.75 68.28 248.73 68.46 248.71 68.67 248.71 69.04 248.75 69.4 248.81 69.76 248.94 70.11 249.09 70.44 249.28 70.77 249.52 71.08 249.79 71.37 250.1 71.64 250.43 71.88 250.8 72.1 251.2 72.28 251.6 72.45 252 72.57 252.38 72.66 252.76 72.72 253.94 71.56 251.82 69.46 251.68 69.65"/><path d="M333.34,124.46l0-.29-.06-.3-.19-.6-.11-.28-.12-.27-.31-.52-.34-.49-.2-.23-.22-.23-.24-.22-.23-.22-.53-.39-.6-.38-.34-.18-.33-.17-.68-.28-.35-.11-.33-.07-.32-.07-.33,0-.49,0-.5,0-.27,0-.25,0-.52.13-.52.17-.49.22-.48.26-.46.3-.29.25-.28.25-.28.28-.29.31-.26.35-.27.36-.5.8,0-.14-.35.67-.28.66-.22.65-.16.63-.07.63v.61l.05.61.05.32.07.3.17.59.11.28.14.26.3.53.35.5.42.46.23.22.24.22.54.41.6.38.62.33.6.25.61.19.61-.09.6-.16h.61l.59.15.6,0,.59-.12.54-.24.27-.16.27-.17.5-.38.49-.45.21-.25.24-.27.42-.6.41-.64.37-.67.29-.67.22-.66.16-.66.09-.63v-.62Zm-2.57.94-.08.4-.12.44-.17.44-.22.46-.24.49-.28.46-.31.42-.31.37-.16.17-.15.16-.33.3-.32.23-.34.18-.37.15-.35.09-.36.06-.36,0H326l-.34-.07-.35-.08-.35-.15-.35-.17-.33-.19-.28-.25-.26-.24-.22-.28-.19-.28-.16-.33-.14-.33-.1-.37,0-.37,0-.39,0-.4.07-.41.12-.43.16-.44.22-.46.25-.47-.06-.1.29-.45.31-.43.14-.2.16-.17.31-.32.31-.28.34-.22.33-.19.19-.07.17-.06.35-.1.37-.06h.7l.34.06.34.11.37.15.35.19.34.21.31.23.26.26.11.14.11.15.21.28.16.3.12.33.1.34,0,.38,0,.38Z" transform="translate(-87.09 -67.5)"/><polygon points="221.18 55.97 227 44.53 229.35 45.72 224.51 55.22 230.29 58.16 229.31 60.12 221.18 55.97 221.18 55.97"/><path d="M309,112.26l-.11-.6-.19-.58-.24-.56-.16-.26-.15-.25-.37-.49-.41-.43-.23-.22-.23-.2-.25-.18-.26-.17-.58-.34-.63-.29-.71-.27-.7-.2-.69-.11-.66,0-.5,0-.5.09-.51.15-.5.17-.5.24-.45.29-.44.32-.41.35-.27.27-.25.28-.25.32-.24.34-.44.77-.41.86,0-.16-.27.71-.22.69-.12.66-.05.33.14.32.14.32v.32l-.1.63.05.6.15.58.21.56.15.26.16.27.35.48.4.44.24.2.23.2.54.38.58.33.65.32.64.23.65.19.62.11.63.07.6,0,.59-.07.6-.15.28-.11.28-.11.55-.27.51-.32.47-.39.45-.47.43-.51.39-.58.34-.62.17-.34.16-.35.28-.71.21-.71.13-.68.07-.66,0-.64Zm-2.6,1.26-.07.44-.11.46-.15.49-.21.5-.22.5-.24.44-.26.4-.28.37-.28.32-.32.26-.15.12-.15.11-.33.18-.35.13-.34.1-.34.06-.37,0h-.34l-.35-.07-.36-.09-.35-.14-.34-.18-.32-.19-.28-.22-.24-.26-.12-.13-.11-.15-.21-.3-.16-.32-.13-.37-.11-.36-.05-.39,0-.41,0-.43.07-.44.09-.47.16-.47.18-.49-.06.13.06-.14h0l.18-.37.23-.44.26-.41.28-.37.28-.31.3-.27.32-.23.33-.17.35-.14.34-.1.34-.06.36,0,.36,0,.37,0,.38.11.35.13.36.16.17.1.16.11.31.22.25.24.12.12.11.14.11.14.1.16.16.29.07.17.06.17.1.37,0,.38v.4Z" transform="translate(-87.09 -67.5)"/><polygon points="194.75 45.88 198.76 33.54 201.17 34.33 203.57 44.23 206.25 35.96 208.55 36.7 204.56 49.04 202.07 48.22 199.7 38.49 197.07 46.59 194.77 45.85 194.75 45.88"/><polygon points="181.48 42.76 182.84 36.41 184.19 30.08 186.76 30.63 185.69 35.63 190.69 36.7 191.74 31.7 194.31 32.24 192.96 38.58 191.61 44.92 189.05 44.38 190.22 38.82 185.22 37.75 184.04 43.29 181.47 42.74 181.48 42.76"/><polygon points="176.71 37.26 179.16 38.29 178.94 38.79 178.7 39.25 178.45 39.67 178.18 40.06 177.89 40.42 177.57 40.74 177.25 41.01 177.08 41.13 176.89 41.26 176.52 41.46 176.12 41.63 175.71 41.76 175.49 41.82 175.27 41.87 174.84 41.93 174.37 41.95 173.86 41.95 173.36 41.91 173.05 41.87 172.74 41.82 172.15 41.67 171.6 41.47 171.07 41.21 170.58 40.91 170.36 40.72 170.13 40.53 169.71 40.14 169.32 39.66 168.99 39.18 168.83 38.91 168.71 38.63 168.48 38.05 168.31 37.46 168.24 37.13 168.19 36.81 168.13 36.14 168.13 35.44 168.17 34.68 168.28 33.89 168.44 33.17 168.64 32.5 168.89 31.86 169.19 31.29 169.53 30.75 169.72 30.49 169.92 30.25 170.13 30.03 170.36 29.82 170.84 29.45 171.33 29.13 171.87 28.88 172.42 28.68 173 28.53 173.6 28.46 174.25 28.45 174.91 28.5 175.49 28.57 176.04 28.7 176.54 28.86 177.03 29.08 177.47 29.31 177.89 29.61 178.27 29.92 178.44 30.12 178.61 30.3 178.81 30.53 178.98 30.8 179.29 31.38 179.41 31.71 179.53 32.06 179.68 32.83 177.05 33.16 177.02 32.91 176.96 32.67 176.8 32.23 176.69 32.03 176.57 31.83 176.27 31.48 175.91 31.19 175.72 31.08 175.5 30.97 175.06 30.81 174.81 30.76 174.57 30.71 174.23 30.69 173.88 30.7 173.56 30.75 173.24 30.82 172.95 30.93 172.67 31.09 172.55 31.16 172.4 31.26 172.16 31.48 171.91 31.75 171.72 32.04 171.53 32.37 171.37 32.77 171.23 33.2 171.11 33.66 171.01 34.16 170.94 34.72 170.89 35.3 170.87 35.85 170.88 36.38 170.93 36.85 171.02 37.26 171.13 37.64 171.27 37.98 171.44 38.3 171.65 38.55 171.86 38.79 172.12 38.99 172.38 39.16 172.67 39.31 172.96 39.43 173.28 39.5 173.63 39.55 174.15 39.56 174.38 39.53 174.63 39.48 175.08 39.32 175.27 39.21 175.49 39.07 175.69 38.92 175.88 38.73 176.08 38.52 176.24 38.29 176.39 38.04 176.55 37.75 176.81 37.11 176.71 37.26"/><polygon points="155.41 41.02 155.41 28.06 165.01 28.06 165.01 30.26 158.03 30.26 158.03 33.14 164.5 33.14 164.5 35.32 158.03 35.32 158.03 38.84 165.25 38.84 165.25 41.03 155.41 41.03 155.41 41.02"/><polygon points="146.75 42.09 144.89 31.47 141.12 32.14 140.72 29.97 150.85 28.18 151.25 30.34 147.49 30.99 149.35 41.6 146.77 42.05 146.75 42.09"/><polygon points="122.22 49.35 117.79 37.18 126.15 34.13 126.9 36.18 121.01 38.34 122.07 41.23 127.16 39.37 127.91 41.43 122.81 43.28 124.7 48.44 122.22 49.33 122.22 49.35"/><path d="M205.07,114.69,205,114l-.17-.68-.23-.68-.31-.69-.34-.69-.18-.33-.2-.29-.2-.29-.22-.27-.44-.5-.47-.44L202,109l-.26-.17-.53-.31-.57-.25-.59-.18-.6,0-.59,0h-.62l-.61,0-.63.1-.65.18-.65.26-.68.35-.62.39-.55.43-.47.47-.32.39-.27.42-.25.46-.2.49-.15.54L192,113l-.06.54,0,.55v.36l.05.39.07.39.1.42.12.41.14.43.37.87.14-.12.34.67.38.61.41.55.44.5.45.42.5.38.54.32.54.25.59.2.29.06.29.05.29,0,.31,0h.61l.62-.06.62-.15.3-.11.33-.11.65-.27.62-.3.56-.35.5-.39.45-.43.39-.45.35-.5.15-.27.13-.27.22-.56.1-.29.07-.29.1-.6,0-.62Zm-2.38,1.13-.19.39-.16.38-.16.34-.18.33-.2.29-.11.14-.12.13-.25.26-.27.22-.32.21-.34.18-.34.15-.37.1-.36-.06-.35-.1h-.37l-.35.07h-.36l-.35-.12-.34-.15-.33-.19-.31-.26-.3-.29-.28-.34-.26-.39-.27-.44-.24-.49v-.07l-.22-.49-.17-.48-.12-.45,0-.44V113l.06-.35.11-.34L195,112l.18-.3.1-.14.11-.12.26-.24.28-.23.33-.2.34-.18.38-.13.36-.13.34-.24.37-.2h.39l.37.23.34.18.33.17.32.18.33.23.3.26.29.32.28.36.27.39.24.44.24.48.21.5.17.49.13.45.23.46.21.41Z" transform="translate(-87.09 -67.5)"/><polygon points="88.71 68.02 81.47 57.29 89.42 51.91 90.64 53.73 84.88 57.63 86.47 60.01 91.84 56.39 93.06 58.21 87.7 61.82 89.66 64.73 95.64 60.69 96.86 62.51 88.69 68.01 88.71 68.02"/><polygon points="81.94 73.44 75.02 65.18 72.09 67.66 70.68 65.98 78.55 59.37 79.96 61.05 77.03 63.51 83.95 71.75 81.94 73.44 81.94 73.44"/><polygon points="60.98 76.45 62.77 74.52 67.91 79.32 68.92 80.24 69.55 80.73 69.9 80.9 70.28 81.01 70.48 81.03 70.67 81.05 71.05 81.02 71.24 80.97 71.45 80.91 71.83 80.72 72.2 80.45 72.58 80.09 72.91 79.7 73.17 79.31 73.25 79.11 73.34 78.92 73.39 78.72 73.4 78.55 73.4 78.21 73.34 77.88 73.29 77.72 73.22 77.58 73.05 77.3 72.8 76.99 72.47 76.62 71.51 75.7 66.28 70.8 68.06 68.89 73.05 73.54 73.84 74.27 74.48 74.92 74.97 75.47 75.16 75.7 75.32 75.92 75.58 76.32 75.76 76.75 75.91 77.16 75.98 77.59 75.99 78.03 75.97 78.48 75.88 78.94 75.72 79.4 75.5 79.9 75.37 80.16 75.2 80.4 74.81 80.93 74.58 81.21 74.34 81.47 74.03 81.8 73.74 82.09 73.16 82.58 72.62 82.97 72.12 83.24 71.64 83.41 71.41 83.47 71.18 83.52 70.73 83.58 70.28 83.57 69.86 83.52 69.45 83.42 69.09 83.3 68.73 83.13 68.2 82.79 67.6 82.33 66.91 81.74 66.15 81.06 61.04 76.4 60.98 76.45"/><polygon points="65.01 92.12 56.42 85.63 54.1 88.7 52.36 87.39 58.55 79.18 60.29 80.49 57.99 83.55 66.59 90.02 65.01 92.12 65.01 92.12"/><polygon points="60.12 99.11 49.24 92.04 50.67 89.85 61.54 96.9 60.12 99.11 60.12 99.11"/><polygon points="55.64 106.43 46.22 101.21 44.35 104.56 42.44 103.5 47.43 94.52 49.34 95.57 47.49 98.9 56.91 104.14 55.64 106.43 55.64 106.43"/><polygon points="44.87 119.46 45.64 117.02 46.23 117.11 46.52 117.15 46.8 117.14 47.05 117.13 47.28 117.08 47.72 116.91 47.93 116.8 48.12 116.67 48.32 116.51 48.47 116.34 48.63 116.14 48.78 115.92 49.05 115.42 49.25 114.88 49.31 114.61 49.35 114.36 49.39 114.13 49.38 113.9 49.36 113.68 49.31 113.47 49.16 113.12 49.07 112.96 48.97 112.83 48.85 112.71 48.73 112.6 48.43 112.43 48.22 112.36 48.01 112.33 47.8 112.33 47.61 112.38 47.39 112.45 47.18 112.6 46.95 112.78 46.72 113.02 46.51 113.26 46.22 113.63 45.38 114.72 44.76 115.5 44.15 116.14 43.87 116.4 43.59 116.62 43.32 116.79 43.06 116.93 42.7 117.08 42.34 117.18 41.98 117.26 41.63 117.29 41.28 117.27 40.91 117.22 40.57 117.13 40.22 117.01 39.78 116.77 39.57 116.65 39.39 116.49 39.05 116.17 38.73 115.76 38.49 115.33 38.31 114.84 38.2 114.31 38.17 114.05 38.17 113.77 38.2 113.17 38.31 112.56 38.48 111.92 38.73 111.25 38.99 110.72 39.26 110.24 39.54 109.8 39.82 109.41 40.13 109.07 40.46 108.78 40.8 108.53 41.17 108.34 41.55 108.18 41.92 108.07 42.31 108.01 42.72 107.98 43.1 108 43.52 108.04 43.93 108.13 44.36 108.28 43.42 110.73 43.18 110.69 42.96 110.64 42.52 110.64 42.14 110.69 41.81 110.83 41.52 111.04 41.38 111.17 41.25 111.33 41.01 111.71 40.78 112.17 40.61 112.68 40.5 113.15 40.46 113.57 40.49 113.79 40.54 113.99 40.61 114.22 40.73 114.4 40.89 114.56 41.11 114.68 41.33 114.74 41.53 114.77 41.77 114.72 41.88 114.68 41.98 114.62 42.31 114.4 42.7 114.01 43.18 113.46 43.73 112.76 44.27 112.04 44.8 111.42 45.27 110.93 45.49 110.71 45.7 110.54 46.11 110.25 46.33 110.11 46.55 110.02 46.99 109.85 47.48 109.74 47.71 109.7 47.96 109.7 48.49 109.75 48.75 109.8 49.02 109.86 49.3 109.96 49.58 110.07 50.07 110.32 50.51 110.64 50.72 110.83 50.92 111.02 51.27 111.47 51.55 111.95 51.66 112.2 51.76 112.48 51.88 113.02 51.92 113.33 51.92 113.62 51.87 114.27 51.82 114.59 51.75 114.94 51.54 115.64 51.26 116.41 51.02 116.94 50.75 117.44 50.47 117.89 50.15 118.28 49.83 118.65 49.47 118.97 49.12 119.22 48.74 119.44 48.35 119.61 47.93 119.73 47.5 119.83 47.05 119.87 46.41 119.87 45.93 119.82 45.43 119.73 44.91 119.6 44.87 119.46"/><polygon points="44.98 133.47 32.52 129.9 33.23 127.45 43.04 124.73 34.7 122.33 35.36 120.01 47.81 123.58 47.08 126.11 37.44 128.83 45.63 131.17 44.95 133.5 44.98 133.47"/><polygon points="43.76 139 37.43 137.65 31.1 136.31 31.62 133.75 37.95 135.08 44.3 136.42 43.75 138.98 43.76 139"/><polygon points="41.88 163.5 28.92 163.5 28.92 160.95 37.6 155.61 28.92 155.61 28.92 153.18 41.88 153.18 41.88 155.81 33.35 161.06 41.89 161.06 41.89 163.48 41.88 163.5"/><path d="M129.91,243.15l-3.06-.76-.54-5.17,2.8-1.41-.28-2.81,0,0-12.35,6.53.28,2.76,6.71,1.82,6.7,1.84Zm-10.27-2.54,4.57-2.29h0l.38,3.53Z" transform="translate(-87.09 -67.5)"/><polygon points="43.96 182.68 37.56 183.79 31.18 184.92 30.73 182.33 37.11 181.19 43.5 180.07 43.96 182.66 43.96 182.68"/><polygon points="34.42 199.02 34.39 198.91 34.29 198.93 34.42 199.02"/><path d="M134,263.31l-1.19-4.77-.19-.65-.2-.59-.2-.51-.23-.43-.33-.48-.17-.21-.17-.21-.36-.34-.19-.16-.19-.12-.56-.29-.29-.12-.32-.11-.66-.17-.36-.05-.36,0h-.64l-.66,0-.72.11-.36.06-.38.09-.84.25-.74.28-.36.14-.31.16-.59.35-.53.37-.23.21-.22.22-.41.43-.34.49-.28.5-.19.54-.14.57-.06.58,0,.48.07.58.11.67.17.74,1.11,4.51,6.18-1.53Zm-11,.14h.06l-.27-1.08-.15-.71-.14-.58-.07-.48,0-.34,0-.36v-.17l0-.17.09-.32.14-.31.18-.28.11-.13.12-.12.13-.14.14-.12.33-.24.4-.22.5-.21.6-.2.67-.2.69-.16.62.09.56.15h.49l.41-.17.38,0,.3.06.27.12.22.16.19.2.36.49.11.27.12.33.27.91.47,1.89-8.28,2.06v.06Z" transform="translate(-87.09 -67.5)"/><polygon points="51.29 208.82 39.06 213.03 38.23 210.63 44.7 202.75 36.49 205.59 35.7 203.3 47.96 199.07 48.8 201.56 42.46 209.28 50.51 206.51 51.3 208.82 51.29 208.82"/><polygon points="53.51 214 41.58 219.06 40.56 216.65 52.48 211.6 53.49 214.01 53.51 214"/><polygon points="55.85 226.84 55.61 226.96 55.35 227.04 54.84 227.13 54.57 227.15 54.3 227.12 54.04 227.07 53.77 226.99 53.5 226.89 53.24 226.76 52.81 226.45 52.61 226.26 52.44 226.05 52.14 225.6 52.03 225.33 51.93 225.08 51.83 224.55 51.83 224.28 51.84 224.02 51.89 223.75 51.97 223.48 52.05 223.21 52.19 222.96 52.48 222.52 52.65 222.34 52.85 222.17 53.32 221.86 53.56 221.75 53.83 221.65 54.34 221.56 54.61 221.56 54.88 221.57 55.14 221.62 55.41 221.7 55.68 221.79 55.91 221.91 56.35 222.21 56.53 222.4 56.72 222.59 56.99 223.06 57.12 223.31 57.19 223.58 57.27 224.09 57.3 224.36 57.27 224.61 57.23 224.88 57.14 225.15 57.04 225.42 56.92 225.65 56.62 226.09 56.42 226.27 56.23 226.45 55.77 226.73 55.85 226.84"/><polygon points="205.21 340.65 203.98 340.65 198.18 337.72 199.43 336.06 205.21 340.65 205.21 340.65"/><path d="M290.25,401.22l-2.05,1.09,6,5.69h-21v2.68h8.93v6.48l-.5.44-.26.22-.28.22-.13.08-.17.09-.15.08-.17.06-.38.08-.43,0-.43,0-.18-.08-.17-.06-.34-.22-.31-.3-.23-.34-.17-.39-.06-.21,0-.21,0-.45,0-.31,0-.3.06-.25.09-.26.11-.2.13-.2.17-.18.17-.12.41-.25.43-.16.48-.09.49,0,.4,0,.24.07-.56-2-.84.11-.85.18-.83.23-.84.32-.39.19-.34.27-.28.33-.12.21-.11.2-.11.22-.09.24-.12.53-.07.59,0,.66,0,.47.06.45.1.41.13.39.17.38.21.35.25.33.28.3.32.27.33.23.34.2.38.16.36.12.42.09.42.07h.47l.63-.05.62-.14.29-.1.31-.14.32-.13.35-.17v3.51h2.67v-7.32l.28-.59.17-.3.23-.28.13-.14.12-.13.31-.17.35-.11.38,0,.18,0h.18l.17.05.16.07.16.09.14.11.13.12.12.14.2.32.08.17.07.2.07.37,0,.39v.33l0,.33-.06.29-.07.31-.11.28-.12.26-.16.26-.18.24-.38.47-.39.42-.77.76,1.85,1.35.5-.51.5-.56.49-.6.5-.62.22-.35.21-.34.15-.38.15-.38.11-.39.06-.41.05-.43v-.85l0-.18,0-.21-.1-.37-.12-.36-.16-.35-.18-.33-.25-.32-.26-.29-.28-.28-.32-.25-.3-.19-.36-.17-.35-.13-.35-.1-.41-.05-.39,0-.49,0-.43.07-.38.11-.33.17-.53.38-.22.18-.21.39.05-2.67h9.18v12.49h2.68V410.68h4.21l-.16.18-.11.25-.07.3v.67l0,.33.07.31.11.29.15.27.17.24.21.22.21.21.27.17.27.16.31.14.3.11.33.07.34.06.38,0h.37l.5-.05.64-.13.56-.16.3-.11-.07.43-.12.4-.17.39-.24.35-.14.17-.17.16-.22.13-.23.13-.27.11-.31.16-.7.24h-.32l-.46-.13-.18-.09-.15-.07-.94-.91-1.56,1.53,1.32,1.35.91.88.81.76.81.68.94.73,1.85,1.37,1.38-1.71-2.09-1.6-.76-.65-.73-.69.5-.06.46-.11.46-.15.44-.21.39-.23.39-.29L307,417l.33-.36.32-.39.25-.43.21-.44.2-.44.14-.48.1-.49.06-.52v-.54l0-.38-.05-.36-.06-.34-.11-.31-.15-.31-.17-.53-.45-.9h4v13.39h1.79V410.68h14.28v2.41l-.59.19-.42.12-.17.06-.14.08-.28.13-.25.14-.25.17-.36.27-.28-.27-.36-.26-.41-.27-.53-.27-.56-.22-.29-.1-.28-.07-.6-.1-.59-.05-.45,0-.45.07-.43.1-.4.13-.4.2-.38.22-.37.26-.34.31-.3.33-.27.36-.13.17-.1.19-.18.4-.16.39-.1.42-.06.44,0,.44,0,.5.11.49.06.25.1.25.21.49.3.5.36.49.43.5.48.5.5.47.49.41.46.35.45.29.43.22.4.16.39.1.36,0,1.15-1.75-.72-.34-.72-.38-.7-.42-.71-.46-.16-.12-.18-.12-.28-.28-.23-.31-.19-.31-.16-.37-.11-.36-.06-.39,0-.43v-.25l0-.24.05-.21.06-.22.09-.22.09-.2.27-.38.33-.29.18-.12.2-.1.4-.12.45-.05h.43l.37.07.37.09.33.12.29.18.26.18.21.23.1.11.09.12-.43.82-.45,1.06,2,.87,0-.12.06-.21.25-.62.36-.73.18-.3.21-.27.2-.26.22-.22.23-.19.26-.16.27-.16.09-.11.34-.19v8.2h2.68V410.68h5.35v3.57h-1.32l-.31.23-.32.17-.15.11-.09.14-.06.14,0,.19v.16l.08.17.28.48.48.62.69.77.36.39.34.34.57.51.24.18.21.13.19.08H337l.19,0,.13-.05.12-.09.09-.11.07-.14-.08-.18,0-.43v-2h4.46v7.14h2.68V409.78h.89V408h-50.2Zm47.23,8.56h4.46v4.47h-4.46Zm-34.85,1.34.09-.25.12-.24.18-.21.22-.2.23-.12.24-.09.27,0,.45,0,.4.12.38.18.17.12.16.16.24.32.19.29.12.3,0,.28.06.08-.13.19-.17.18-.21.17-.24.17-.28.13-.28.09-.29.07h-.32l-.34,0-.32-.08-.26-.11-.26-.17-.21-.22-.07-.11-.06-.15-.09-.3,0-.33Z" transform="translate(-87.09 -67.5)"/><polygon points="174.42 359.83 174.41 360.13 174.35 360.41 174.26 360.68 174.2 360.82 174.13 360.94 173.96 361.18 173.76 361.4 173.52 361.59 173.24 361.77 172.94 361.94 172.59 362.08 172.24 362.2 171.86 362.31 171.46 362.38 171.04 362.43 170.57 362.48 169.55 362.48 169.01 362.43 167.99 362.3 167.5 362.2 167.04 362.07 166.57 361.92 166.13 361.75 164.5 361.04 163.09 360.34 164.22 358.72 164.27 358.78 164.39 358.86 164.8 359.13 165.47 359.47 166.38 359.92 166.91 360.15 167.41 360.34 168.38 360.64 169.28 360.82 169.72 360.87 170.15 360.88 170.62 360.87 171.05 360.82 171.39 360.74 171.66 360.63 171.88 360.5 171.95 360.4 172.01 360.29 172.11 360.03 172.14 359.72 172.12 359.51 172.06 359.34 171.96 359.18 171.85 359.06 171.68 358.96 171.5 358.9 171.27 358.85 170.73 358.85 170.48 358.9 170.21 358.97 169.94 359.07 169.54 359.26 169.42 359.36 169.34 359.42 168.27 358.18 168.89 357.88 169.61 357.57 169.99 357.44 170.35 357.37 170.72 357.31 171.06 357.28 171.81 357.31 172.5 357.43 172.79 357.5 173.07 357.6 173.57 357.87 173.79 358.02 173.96 358.19 174.12 358.39 174.25 358.6 174.36 358.84 174.42 359.11 174.47 359.36 174.48 359.67 174.42 359.83"/><path d="M243.8,408l-.77-1.45-.16-.35-.13-.38-.06-.38,0-.38v-.16l0-.2,0-.14.06-.16.08-.15.11-.14.25-.27.32-.22.33-.13.16-.06.18,0,.36.06h.67l.27,0H246l.45,0v-1.42L246,402l-.36-.11-.49-.15-.52-.06-.58,0-.68.06-.32.05-.29.1-.28.11-.27.13-.24.16-.23.18-.21.21-.17.23-.16.24-.12.28-.1.32-.06.33,0,.34v.38l0,.41.08.44.14.45.18.46.48.77.46.7H213.4v2.68h8.93V417l-.46.44-.27.22-.28.22-.14.08-.14.1-.18.08-.17.06-.38.08-.44,0-.41,0-.2-.08-.17-.06-.34-.22-.28-.3-.26-.34-.17-.39-.06-.21,0-.2,0-.45v-.32l0-.29.06-.26.1-.24.11-.21.15-.18.16-.19.19-.12.4-.23.43-.16.46-.08.49,0,.41,0,.25.07-.56-2-.84.11-.84.17-.83.23-.85.31-.39.2-.35.27-.28.33-.12.21-.11.2-.09.22-.09.23-.13.53-.08.59,0,.66,0,.48.08.45.08.42.14.39.17.38.2.34.26.33.28.3.32.27.32.25.35.18.37.16.38.12.4.08.44.06.44,0,.62,0,.61-.13.3-.11.31-.14.34-.14.34-.17v3.57H225v-7.38l.3-.59.18-.29.23-.29.12-.13.14-.12.32-.17.33-.11.38,0,.18,0h.19l.17,0,.17.08.14.08.13.11.15.14.11.13.2.32.09.17.06.19,0,.38,0,.39v1l-.08.29-.1.28-.12.27-.16.26-.19.23-.38.46-.39.43-.76.75,1.85,1.34.51-.5.5-.56.51-.6.49-.62.21-.34.21-.34.16-.38.15-.37.11-.39.08-.42,0-.42V416l0-.42v-.19l0-.21-.08-.36-.11-.36-.17-.35-.19-.33-.23-.31-.27-.28-.28-.28-.31-.24-.32-.18-.34-.17-.34-.13-.37-.1-.37-.05-.41,0-.48,0-.44.07-.38.11-.3.17-.53.38-.14.18-.11.19v-2.49h10.71v3.57h-1l-.33.24-.32.18-.14.12-.1.16-.06.14,0,.19,0,.16.06.17.29.47.48.63.67.77.38.39.32.34.59.52.24.18.21.13.19.09.16,0,.17,0,.16-.05.12-.08.1-.11.07-.15.22-.17.23-.43V416H242v7.14h2.67V410.68h8v2.77l-.18.67-.07.08-.08.08-.07.07-.1.06-.27.08-.37,0-.29,0-.28-.15-.15-.11-.12-.12-.12-.16-.12-.19L250,413l-.39-.75-1.86,1.24,1.17,2,.7,1.14.88,1.27,1,1.35,1,1.33,1.73,2.26,2-1.51-1.1-1.19-.54-.6L254,419l-.47-.6-.47-.86-.91-1.52h.22l.23.15.24.05.27,0,.28-.07.24-.09.23-.1.2-.12.21-.16.17-.2.15-.25.14-.3.11-.31.08-.32.22-.28.18-.28v-4h3.57v4.47h-3.82l1.3,1.78h2.52v7.14h2.67V409.78h1.79V408ZM242,414.47v-.22H238.4v-4.47H242v4.47h.33Z" transform="translate(-87.09 -67.5)"/><polygon points="176.06 342.66 175.95 342.66 175.95 342.78 176.06 342.66"/><polygon points="114.42 353.41 111.48 353.41 111.48 350.6 114.42 350.6 114.42 353.41 114.42 353.41"/><polygon points="114.42 345.43 111.48 345.43 111.48 342.63 114.42 342.63 114.42 345.43 114.42 345.43"/><path d="M195.55,410v-2H178.91l-5.69-6.71-1.72,1.29,5.74,5.42h-16.5v1.78h3.52l.11.23.16.24.17.3.22.36.18.4.15.37.08.35,0,.31v.3l0,.26-.06.25-.07.22-.11.21-.12.17-.13.16-.1.06-.09.06-.18.12-.21.1-.41.16-.48.09-.5,0-.52,0-.19,0-.16-.05,0,.6.09.57.12.55.2.53.11.26.12.24.3.48.36.47.39.43.43.4.47.34.47.3.5.24.54.19.56.12.56.07.59,0,.38,0,.36,0,.38-.06.36-.1.36-.12.36-.16.27-.2.24-.2v3.84h2.68V409.78h3.57v13.39h2.68V409.78h5.36v4.47h-1.2l-.59.07h-.14l-.1.09-.05.14v.33l.09.16.32.48.55.59.77.75.79.7.66.5.27.17.24.14.18.08h.48l.23-.07.16-.14.06-.08-.05-.09v-8.3h3.57v13.39h2.67V409.78h1.52Zm-25,6.32.08.17,0,.17-.23.34-.34.33-.43.32-.47.27-.25.11-.25.08-.52.14-.52,0-.49,0-.21,0-.22-.06-.39-.17-.19-.11-.17-.12-.31-.29-.15-.17-.12-.19-.13-.2-.11-.23-.1-.24-.09-.26.34-.08.33-.11.31-.12.28-.14.25-.14.26-.17.45-.39.18-.22.16-.24.13-.26.11-.28.1-.29.06-.33,0-.33v-.35l0-.36,0-.38-.2-.73-.27-.64-.13-.45-.15-.41h3.66l-.21.27Z" transform="translate(-87.09 -67.5)"/><polygon points="260.08 360.79 259.26 361.85 253.75 357.83 255.38 356.17 260.08 360.76 260.08 360.79"/></svg>